# Blender v2.78 (sub 0) OBJ File: 'board.blend'
# www.blender.org
mtllib board.mtl
o Cube.001
v -0.015233 -0.928760 -1.411697
v -0.015233 -0.928760 1.411697
v -0.015233 0.928760 -1.411696
v -0.015233 0.928760 1.411698
vn 1.0000 -0.0000 0.0000
usemtl In
s off
f 3//1 2//1 1//1
f 3//1 4//1 2//1
o Cube
v 0.050000 -1.000000 -1.500000
v 0.050000 -1.000000 1.500000
v -0.050000 -1.010401 1.515601
v -0.050000 -1.010401 -1.515602
v 0.050000 1.000000 -1.499999
v 0.050000 1.000000 1.500001
v -0.050000 1.010401 1.515601
v -0.050000 1.010401 -1.515602
v 0.050000 -0.937167 -1.424475
v 0.050000 -0.937167 1.424475
v 0.050000 0.937167 -1.424474
v 0.050000 0.937167 1.424476
v -0.015233 -0.928760 -1.411697
v -0.015233 -0.928760 1.411697
v -0.015233 0.928760 -1.411696
v -0.015233 0.928760 1.411698
vn 0.1035 -0.9946 0.0000
vn 0.1035 0.9946 0.0000
vn 1.0000 0.0000 0.0000
vn 0.1541 0.0000 0.9880
vn -1.0000 -0.0000 -0.0000
vn 0.1542 0.0000 -0.9880
vn 0.1278 -0.9918 0.0000
vn 0.1922 -0.0000 0.9814
vn 0.1922 0.0000 -0.9813
vn 0.1278 0.9918 0.0000
vn 0.1922 -0.0000 0.9813
vn 0.1922 0.0000 -0.9814
usemtl Out
s off
f 5//2 7//2 8//2
f 9//3 11//3 10//3
f 6//4 16//4 10//4
f 6//5 11//5 7//5
f 7//6 12//6 8//6
f 5//7 12//7 9//7
f 16//8 19//8 15//8
f 9//4 13//4 5//4
f 5//4 14//4 6//4
f 9//4 16//4 15//4
f 15//9 17//9 13//9
f 14//10 20//10 16//10
f 13//11 18//11 14//11
f 5//2 6//2 7//2
f 9//3 12//3 11//3
f 6//4 14//4 16//4
f 6//5 10//5 11//5
f 7//6 11//6 12//6
f 5//7 8//7 12//7
f 16//8 20//8 19//8
f 9//4 15//4 13//4
f 5//4 13//4 14//4
f 9//4 10//4 16//4
f 15//12 19//12 17//12
f 14//13 18//13 20//13
f 13//11 17//11 18//11
